<svg xmlns="http://www.w3.org/2000/svg" viewBox="0 0 512 512"><defs><style>.cls-1{fill:#232527;}.cls-2{fill:#ffc100;}.cls-3{fill:none;}</style></defs><title>inarix-logo-v</title><g id="Calque_2" data-name="Calque 2"><g id="Calque_1-2" data-name="Calque 1"><path class="cls-1" d="M129.85,351.6a10.08,10.08,0,0,1-13.56,0,9.06,9.06,0,0,1-2.63-6.68,9.23,9.23,0,0,1,2.63-6.72,9.92,9.92,0,0,1,13.56,0,9.22,9.22,0,0,1,2.62,6.72A9.05,9.05,0,0,1,129.85,351.6ZM115.3,419v-57.3h15.53V419Z"/><path class="cls-1" d="M159.37,361.66v7q4.49-8.31,17.06-8.31,10.17,0,15.64,6.18t5.46,16.68V419H182V385q0-11.26-9.74-11.27c-3.71,0-6.6,1.12-8.64,3.34s-3.06,5.27-3.06,9.13V419H145v-57.3Z"/><path class="cls-1" d="M228.37,420.27q-9.62,0-14.87-4.81t-5.25-12.8a14.74,14.74,0,0,1,5.42-12q5.42-4.46,16.75-6.21l15.34-2.37v-.54q0-8.42-10.28-8.42-9.63,0-10.61,7H209.56a21.06,21.06,0,0,1,7-14.11q6.24-5.68,18.81-5.69t18.81,5.58q6.35,5.58,6.34,15.75v27A26.64,26.64,0,0,0,262.16,419h-15c-.07,0-.15-.26-.22-.77s-.16-1.29-.27-2.35a31.17,31.17,0,0,1-.17-3.23Q241.16,420.28,228.37,420.27Zm17.39-27L232,395.56q-8.77,1.51-8.77,6.72,0,6,8.64,6,6.67,0,10.28-3.47a12.19,12.19,0,0,0,3.61-9.22Z"/><path class="cls-1" d="M306.78,361.22v14.54a15.69,15.69,0,0,0-3.07-.33q-6.88,0-10.33,3.61t-3.44,11.38V419H274.41v-57.3h14.32v7.43q4.92-8,16.19-8Z"/><path class="cls-1" d="M329.74,351.6a10.08,10.08,0,0,1-13.56,0,9.06,9.06,0,0,1-2.63-6.68,9.23,9.23,0,0,1,2.63-6.72,9.92,9.92,0,0,1,13.56,0,9.22,9.22,0,0,1,2.62,6.72A9.05,9.05,0,0,1,329.74,351.6ZM315.19,419v-57.3h15.53V419Z"/><path class="cls-1" d="M397.43,361.66l-20.73,28.2L398.08,419h-18.7l-12-16.38-12,16.38h-18.7L358,389.86l-20.73-28.2H356l11.37,15.48,11.38-15.48Z"/><path class="cls-2" d="M395.23,195.48l-52.37-85.1a7.09,7.09,0,0,0-6-3.38H188.26a7.08,7.08,0,0,0-5.62,2.77h0a7.1,7.1,0,0,0,5.62,11.42h47.79l17.46,28.36h-98a7.08,7.08,0,0,0-5.62,2.77h0a7.09,7.09,0,0,0,5.62,11.41h106.7l17.46,28.37H135.13a7.08,7.08,0,0,0-5.62,2.77h0a7.1,7.1,0,0,0,0,8.65h0a7.1,7.1,0,0,0,5.62,2.76H279.69l-17.46,28.37H155.53a7.09,7.09,0,0,0-5.62,11.42h0a7.1,7.1,0,0,0,5.62,2.76h98L236.05,277.2H188.26a7.09,7.09,0,0,0-5.62,11.41h0a7.08,7.08,0,0,0,5.62,2.77H336.82a7.08,7.08,0,0,0,6-3.37l52.37-85.1A7.1,7.1,0,0,0,395.23,195.48Zm-54.07-60.8L376.5,192.1H356.64A21.27,21.27,0,0,1,338.52,182l-37.41-60.79H317A28.36,28.36,0,0,1,341.16,134.68ZM252.7,121.19h15.9a28.38,28.38,0,0,1,24.16,13.49L328.1,192.1H308.23A21.3,21.3,0,0,1,290.11,182Zm0,156,37.41-60.79a21.31,21.31,0,0,1,18.12-10.13H328.1L292.76,263.7a28.37,28.37,0,0,1-24.16,13.5Zm64.31,0h-15.9l37.41-60.79a21.28,21.28,0,0,1,18.12-10.13H376.5L341.16,263.7A28.35,28.35,0,0,1,317,277.2Z"/><rect class="cls-3" width="512" height="512"/></g></g></svg>